Run_20002
nRows=4
nColumns=161

# SIMM Motion File Header:
name Run_20002
datacolumns 161
datarows 4
otherdata 1
range 1.36666700 1.39166700
endheader
time	pelvis_tilt	pelvis_list	pelvis_rotation	pelvis_tx	pelvis_ty	pelvis_tz	hip_flexion_r	hip_adduction_r	hip_rotation_r	knee_angle_r	ankle_angle_r	hip_flexion_l	hip_adduction_l	hip_rotation_l	knee_angle_l	ankle_angle_l	lumbar_extension	lumbar_bending	lumbar_rotation	arm_flex_r	arm_add_r	arm_rot_r	elbow_flex_r	pro_sup_r	arm_flex_l	arm_add_l	arm_rot_l	elbow_flex_l	pro_sup_l	subtalar_angle_r	mtp_angle_r	subtalar_angle_l	mtp_angle_l	wrist_flex_r	wrist_dev_r	wrist_flex_l	wrist_dev_l	LASI_tx	LASI_ty	LASI_tz	RASI_tx	RASI_ty	RASI_tz	LPSI_tx	LPSI_ty	LPSI_tz	RPSI_tx	RPSI_ty	RPSI_tz	RTH1_tx	RTH1_ty	RTH1_tz	RTH3_tx	RTH3_ty	RTH3_tz	LTH1_tx	LTH1_ty	LTH1_tz	LTH2_tx	LTH2_ty	LTH2_tz	LTH3_tx	LTH3_ty	LTH3_tz	RTB1_tx	RTB1_ty	RTB1_tz	RTB2_tx	RTB2_ty	RTB2_tz	RTB3_tx	RTB3_ty	RTB3_tz	LTB1_tx	LTB1_ty	LTB1_tz	LTB2_tx	LTB2_ty	LTB2_tz	LTB3_tx	LTB3_ty	LTB3_tz	RCAL_tx	RCAL_ty	RCAL_tz	RTOE_tx	RTOE_ty	RTOE_tz	RMT5_tx	RMT5_ty	RMT5_tz	LCAL_tx	LCAL_ty	LCAL_tz	LTOE_tx	LTOE_ty	LTOE_tz	LMT5_tx	LMT5_ty	LMT5_tz	LACR_tx	LACR_ty	LACR_tz	RACR_tx	RACR_ty	RACR_tz	CLAV_tx	CLAV_ty	CLAV_tz	C7_tx	C7_ty	C7_tz	RUA1_tx	RUA1_ty	RUA1_tz	RUA2_tx	RUA2_ty	RUA2_tz	RUA3_tx	RUA3_ty	RUA3_tz	RLEL_tx	RLEL_ty	RLEL_tz	RMEL_tx	RMEL_ty	RMEL_tz	LUA1_tx	LUA1_ty	LUA1_tz	LUA2_tx	LUA2_ty	LUA2_tz	LUA3_tx	LUA3_ty	LUA3_tz	LLEL_tx	LLEL_ty	LLEL_tz	LMEL_tx	LMEL_ty	LMEL_tz	RFAsuperior_tx	RFAsuperior_ty	RFAsuperior_tz	RFAradius_tx	RFAradius_ty	RFAradius_tz	RFAulna_tx	RFAulna_ty	RFAulna_tz	LFAsuperior_tx	LFAsuperior_ty	LFAsuperior_tz	LFAradius_tx	LFAradius_ty	LFAradius_tz	LFAulna_tx	LFAulna_ty	LFAulna_tz
      1.36666700	      0.34051509	      6.90861989	      2.84988997	      0.87263103	      0.95775852	     -0.27712340	     27.33945103	    -10.33709847	     -0.42841668	    -83.81701071	      4.45799515	      4.93617448	     16.17266397	      8.14453189	    -32.40315009	     19.12229156	    -13.38224698	     -6.67892570	    -13.31873384	    -31.45133859	    -17.81280091	      3.37932027	     68.32240618	    102.56710129	    -19.21933129	    -16.71931292	     -1.46243898	    108.98093119	    108.01177000	      0.00000000	      0.00000000	      0.00000000	      0.00000000	      0.00000000	      0.00000000	      0.00000000	      0.00000000	      0.87857285	      0.99390734	     -0.38899990	      0.89121693	      0.97324615	     -0.15527624	      0.72031629	      1.01680634	     -0.31012772	      0.71940836	      1.00823807	     -0.21513210	      0.85645831	      0.80973931	     -0.09340858	      0.95443215	      0.57484696	     -0.11715813	      0.83301679	      0.80036471	     -0.44281912	      0.89147354	      0.69303685	     -0.41919244	      0.82631719	      0.57847599	     -0.38435159	      0.91400717	      0.37825409	     -0.17161899	      0.84082015	      0.38149033	     -0.11313820	      0.80662302	      0.32180283	     -0.17331174	      0.82790107	      0.35802980	     -0.28860156	      0.76683795	      0.29610177	     -0.35786182	      0.74906769	      0.20804827	     -0.27967744	      0.60790074	      0.30944094	     -0.18593460	      0.72818212	      0.13591187	     -0.17981262	      0.69806795	      0.15560196	     -0.08946536	      0.58470086	      0.11842788	     -0.27174825	      0.78620189	      0.07438325	     -0.24270537	      0.77171377	      0.05933743	     -0.33253201	      0.88600772	      1.43198749	     -0.46359189	      0.84037524	      1.42666034	     -0.07222814	      0.93149742	      1.42448593	     -0.23982692	      0.81728543	      1.49110159	     -0.28590894	      0.74888201	      1.31216369	     -0.03276179	      0.68195826	      1.32401841	     -0.06630046	      0.68668128	      1.24944434	     -0.01137897	      0.63643218	      1.19715802	      0.00253412	      0.61056124	      1.18457127	     -0.07448863	      0.82779690	      1.29593827	     -0.51697492	      0.75852120	      1.25156151	     -0.51464090	      0.82355337	      1.20650793	     -0.52666812	      0.77876804	      1.13343131	     -0.54904876	      0.72889048	      1.13389907	     -0.47778056	      0.70174951	      1.08588205	     -0.00384627	      0.75682643	      0.99029553	     -0.05888837	      0.70569264	      0.96125184	     -0.01952368	      0.89279032	      1.09340361	     -0.50189267	      0.97262642	      1.10879819	     -0.40404830	      0.97838475	      1.04986140	     -0.44168704
      1.37500000	     -0.01832857	      6.06364100	      2.82295676	      0.87443086	      0.96293754	     -0.27657523	     28.06261648	     -9.14685323	     -0.62787704	    -81.25419064	      5.04110723	      2.78601819	     15.12735842	      9.45988484	    -29.91562799	     18.09131920	    -12.50222146	     -5.75230075	    -13.92244580	    -33.19292956	    -18.52778511	      3.32830643	     69.26363678	    102.30103495	    -19.05192458	    -16.61204338	     -1.61094418	    110.07396354	    108.02823123	      0.00000000	      0.00000000	      0.00000000	      0.00000000	      0.00000000	      0.00000000	      0.00000000	      0.00000000	      0.88034774	      0.99743335	     -0.38913641	      0.89250743	      0.97933477	     -0.15552772	      0.72263170	      1.02226315	     -0.31105470	      0.72141903	      1.01455886	     -0.21518917	      0.85923742	      0.81666322	     -0.09238165	      0.95879125	      0.58262556	     -0.11794317	      0.83117381	      0.80378852	     -0.44126145	      0.88541222	      0.69491371	     -0.41650998	      0.81508385	      0.58246733	     -0.38237076	      0.92448007	      0.38211269	     -0.17310506	      0.85135992	      0.38183325	     -0.11422785	      0.81954944	      0.32019996	     -0.17425720	      0.81262105	      0.36082259	     -0.28782937	      0.75058424	      0.29972647	     -0.35698371	      0.73208367	      0.21176299	     -0.27912036	      0.62170680	      0.29704536	     -0.18607312	      0.75263741	      0.13119435	     -0.18135559	      0.72198611	      0.14887712	     -0.09055644	      0.56895469	      0.12149845	     -0.27291088	      0.76979305	      0.07465595	     -0.24308361	      0.75509675	      0.05946025	     -0.33272714	      0.88770075	      1.43902267	     -0.46237637	      0.83671629	      1.43374152	     -0.07227113	      0.93050233	      1.43108815	     -0.23786352	      0.81679261	      1.49700877	     -0.28564863	      0.74326822	      1.32145083	     -0.03288363	      0.67698609	      1.33446966	     -0.06710486	      0.67982009	      1.25989679	     -0.01201367	      0.62825194	      1.20877508	      0.00148287	      0.60297223	      1.19663293	     -0.07581186	      0.83158359	      1.30225525	     -0.51643976	      0.76328727	      1.25673956	     -0.51557904	      0.82923400	      1.21267771	     -0.52608499	      0.78551732	      1.13898611	     -0.54888482	      0.73443852	      1.13907489	     -0.47816961	      0.69233481	      1.09725804	     -0.00409887	      0.74699749	      1.00093688	     -0.05835437	      0.69518026	      0.97228003	     -0.01970555	      0.89981366	      1.10258892	     -0.49966366	      0.97770536	      1.12099277	     -0.40099926	      0.98575278	      1.06185426	     -0.43800647
      1.38333300	     -0.31636833	      5.15024336	      2.77701962	      0.87666401	      0.96853061	     -0.27578327	     28.52032372	     -7.79085896	     -0.80774691	    -78.36383278	      5.54581738	      0.55587859	     13.92323442	     10.63113148	    -27.31419545	     16.69003226	    -11.65093658	     -4.77941607	    -14.46879999	    -34.97584556	    -19.21813926	      3.22092482	     70.32943545	    101.78819501	    -19.01919083	    -16.56106933	     -1.67663472	    111.15666200	    107.94966985	      0.00000000	      0.00000000	      0.00000000	      0.00000000	      0.00000000	      0.00000000	      0.00000000	      0.00000000	      0.88248003	      1.00115090	     -0.38898519	      0.89392800	      0.98593511	     -0.15555144	      0.72518873	      1.02800487	     -0.31195183	      0.72421109	      1.02091336	     -0.21514670	      0.86292525	      0.82387135	     -0.09158571	      0.96256997	      0.59046091	     -0.11881296	      0.82973883	      0.80754795	     -0.43959644	      0.87922004	      0.69733064	     -0.41374513	      0.80396504	      0.58735903	     -0.38040741	      0.93448246	      0.38624421	     -0.17502085	      0.86161862	      0.38182091	     -0.11555862	      0.83258722	      0.31850321	     -0.17589244	      0.79750629	      0.36453296	     -0.28707264	      0.73447654	      0.30426468	     -0.35612950	      0.71546608	      0.21630520	     -0.27852397	      0.63624065	      0.28416480	     -0.18628963	      0.77750937	      0.12687451	     -0.18353709	      0.74642526	      0.14220959	     -0.09213682	      0.55384284	      0.12571116	     -0.27410598	      0.75361157	      0.07505369	     -0.24337501	      0.73862950	      0.05966739	     -0.33284418	      0.88947241	      1.44636764	     -0.46109651	      0.83326305	      1.44141246	     -0.07242046	      0.92944966	      1.43804673	     -0.23588973	      0.81625693	      1.50323381	     -0.28537875	      0.73808073	      1.33125886	     -0.03306223	      0.67244362	      1.34547558	     -0.06792925	      0.67351571	      1.27080974	     -0.01274475	      0.62064966	      1.22075600	      0.00022152	      0.59586420	      1.20921541	     -0.07743437	      0.83525292	      1.30908104	     -0.51596489	      0.76781142	      1.26260195	     -0.51656802	      0.83457609	      1.21948357	     -0.52567130	      0.79185858	      1.14526386	     -0.54895068	      0.73951199	      1.14487178	     -0.47877987	      0.68362328	      1.10901306	     -0.00452190	      0.73820857	      1.01217218	     -0.05797330	      0.68564551	      0.98372237	     -0.02029799	      0.90620874	      1.11220124	     -0.49743351	      0.98201213	      1.13335245	     -0.39807776	      0.99220204	      1.07396420	     -0.43434651
      1.39166700	     -0.56504978	      4.18446668	      2.72932991	      0.87905425	      0.97448323	     -0.27474516	     28.75109081	     -6.30475627	     -0.94482513	    -75.15329134	      5.92816229	     -1.64679613	     12.58791200	     11.58203902	    -24.72213905	     14.87418339	    -10.86047346	     -3.77440924	    -14.97890372	    -36.73135940	    -19.85250832	      3.05978679	     71.45157491	    101.16737846	    -19.08143263	    -16.58078624	     -1.66210867	    112.21218761	    107.72130999	      0.00000000	      0.00000000	      0.00000000	      0.00000000	      0.00000000	      0.00000000	      0.00000000	      0.00000000	      0.88477810	      1.00510193	     -0.38866173	      0.89541956	      0.99299560	     -0.15529599	      0.72775738	      1.03399772	     -0.31253260	      0.72711744	      1.02757305	     -0.21499498	      0.86709735	      0.83137805	     -0.09082902	      0.96567792	      0.59808774	     -0.11990158	      0.82839993	      0.81157723	     -0.43781082	      0.87317089	      0.70044131	     -0.41101657	      0.79320671	      0.59313734	     -0.37866309	      0.94397251	      0.39031642	     -0.17720192	      0.87168611	      0.38145155	     -0.11703783	      0.84585739	      0.31678143	     -0.17787664	      0.78275515	      0.36923109	     -0.28647423	      0.71876129	      0.30979050	     -0.35543072	      0.69968085	      0.22163263	     -0.27790608	      0.65159325	      0.27095491	     -0.18658588	      0.80268592	      0.12305498	     -0.18624017	      0.77130337	      0.13568756	     -0.09422140	      0.53955531	      0.13116470	     -0.27524774	      0.73772061	      0.07556429	     -0.24355756	      0.72238661	      0.05992471	     -0.33278492	      0.89133471	      1.45388808	     -0.45979904	      0.83007503	      1.44943849	     -0.07264803	      0.92833450	      1.44520407	     -0.23398164	      0.81569930	      1.50966841	     -0.28514804	      0.73330571	      1.34140559	     -0.03329358	      0.66835990	      1.35685168	     -0.06883797	      0.66775937	      1.28197206	     -0.01353729	      0.61363730	      1.23290242	     -0.00121818	      0.58935898	      1.22208199	     -0.07931479	      0.83892629	      1.31626082	     -0.51557767	      0.77208449	      1.26911551	     -0.51756025	      0.83947050	      1.22680829	     -0.52545304	      0.79777431	      1.15210292	     -0.54925914	      0.74421016	      1.15114858	     -0.47962782	      0.67563792	      1.12093082	     -0.00510375	      0.73039272	      1.02369855	     -0.05776962	      0.67706267	      0.99536177	     -0.02119109	      0.91195037	      1.12202776	     -0.49537934	      0.98561842	      1.14566244	     -0.39531510	      0.99775712	      1.08597008	     -0.43062523
